<?xml version="1.0" standalone="no"?><!DOCTYPE svg PUBLIC "-//W3C//DTD SVG 1.1//EN" "http://www.w3.org/Graphics/SVG/1.1/DTD/svg11.dtd"><svg t="1572091085700" class="icon" viewBox="0 0 1024 1024" version="1.1" xmlns="http://www.w3.org/2000/svg" p-id="1151" width="200" height="200" xmlns:xlink="http://www.w3.org/1999/xlink"><defs><style type="text/css"></style></defs><path d="M589.084444 468.593778c0 48.469333-42.382222 87.779556-94.606222 87.779555-52.451556 0-94.72-39.310222-94.72-87.779555s42.268444-87.836444 94.72-87.836445c52.224 0 94.606222 39.367111 94.606222 87.836445z m-132.551111-178.631111C400.099556 245.191111 418.190222-19.000889 522.524444 7.964444c127.601778 32.597333-4.437333 243.086222-38.968888 295.310223l-27.022223-13.368889zM321.308444 377.173333c-71.338667 8.248889-245.191111-191.203556-152.576-246.158222 113.379556-67.015111 168.789333 175.160889 181.589334 236.657778l-29.013334 9.500444z m-33.564444 157.297778c-44.828444 56.490667-308.736 38.4-282.112-65.991111 32.654222-127.544889 243.143111 4.551111 295.594667 38.798222l-13.482667 27.192889z m87.210667 135.168c8.362667 71.452444-190.976 245.304889-245.930667 152.689778-67.242667-113.379556 175.160889-168.789333 236.430222-181.589333l9.500445 28.899555z m157.411555 33.792c56.376889 44.714667 38.286222 308.622222-66.048 281.713778-127.601778-32.597333 4.664889-242.858667 38.855111-295.424l27.192889 13.653333z m135.054222-87.324444c71.566222-8.362667 245.304889 190.976 152.803556 245.930666-113.379556 67.015111-168.675556-175.274667-181.703111-236.544l28.899555-9.386666z m33.792-157.297778c44.714667-56.604444 308.508444-38.4 281.827556 65.820444-32.597333 127.715556-242.972444-4.664889-295.424-38.855111l13.596444-26.965333zM613.831111 323.697778c-8.248889-71.68 191.089778-245.532444 245.76-152.917334 67.299556 113.493333-174.876444 168.789333-236.373333 181.703112l-9.386667-28.785778z" fill="rgba(255, 255, 255, 0.8)" p-id="1152"></path></svg>