<?xml version="1.0" standalone="no"?><!DOCTYPE svg PUBLIC "-//W3C//DTD SVG 1.1//EN" "http://www.w3.org/Graphics/SVG/1.1/DTD/svg11.dtd"><svg t="1572092854748" class="icon" viewBox="0 0 1024 1024" version="1.1" xmlns="http://www.w3.org/2000/svg" p-id="1129" xmlns:xlink="http://www.w3.org/1999/xlink" width="200" height="200"><defs><style type="text/css"></style></defs><path d="M778.944 388.48L531.968 80a25.6 25.6 0 0 0-40 0L244.48 389.248a345.6 345.6 0 1 0 534.464-0.768zM512 902.4a294.4 294.4 0 0 1-227.84-480.832L512 136.96l227.2 283.776A294.4 294.4 0 0 1 512 902.4z" p-id="1130" fill="#3B5F80"></path><path d="M704 582.4a25.6 25.6 0 0 0-25.6 25.6 166.4 166.4 0 0 1-166.4 166.4 25.6 25.6 0 0 0 0 51.2 217.6 217.6 0 0 0 217.6-217.6 25.6 25.6 0 0 0-25.6-25.6z" p-id="1131" fill="#3B5F80"></path></svg>