<?xml version="1.0" standalone="no"?><!DOCTYPE svg PUBLIC "-//W3C//DTD SVG 1.1//EN" "http://www.w3.org/Graphics/SVG/1.1/DTD/svg11.dtd"><svg t="1572092913777" class="icon" viewBox="0 0 1024 1024" version="1.1" xmlns="http://www.w3.org/2000/svg" p-id="2828" xmlns:xlink="http://www.w3.org/1999/xlink" width="200" height="200"><defs><style type="text/css"></style></defs><path d="M843.683788 1024c-8.663283 0-17.326565-3.465313-27.722504-10.395939L509.281081 793.556684c-5.19797-3.465313-19.059222-3.465313-24.257191 0L209.531504 1010.138748c-20.791878 17.326565-43.316413 15.593909-53.712352 0-6.930626-10.395939-8.663283-22.524535-3.465313-39.8511L459.034042 31.187817C469.429981 3.465313 488.489203 0 495.419829 0c6.930626 0 25.989848 3.465313 36.385787 31.187817L871.406292 970.287648c5.19797 15.593909 5.19797 29.455161-1.732657 39.8511C864.475666 1018.80203 854.079727 1024 843.683788 1024zM497.152485 738.111675c15.593909 0 29.455161 5.19797 41.583756 12.128596l266.829103 190.592217L497.152485 86.632826 218.194786 937.367174l233.908629-185.394247C464.232011 743.309645 479.82592 738.111675 497.152485 738.111675z" p-id="2829" fill="#3B5F80"></path></svg>