<?xml version="1.0" standalone="no"?><!DOCTYPE svg PUBLIC "-//W3C//DTD SVG 1.1//EN" "http://www.w3.org/Graphics/SVG/1.1/DTD/svg11.dtd"><svg t="1572093952022" class="icon" viewBox="0 0 1024 1024" version="1.1" xmlns="http://www.w3.org/2000/svg" p-id="5211" xmlns:xlink="http://www.w3.org/1999/xlink" width="200" height="200"><defs><style type="text/css"></style></defs><path d="M842.112 912.20992a33.47456 33.47456 0 0 1-16.74752-4.51072l-296.64768-171.8016a58.22464 58.22464 0 0 0-28.94848 0L198.5024 907.8016a33.55136 33.55136 0 0 1-16.60928 4.4032 42.66496 42.66496 0 0 1-36.9408-21.08416 44.14464 44.14464 0 0 1-1.55136-42.13248L472.77568 136.35072a42.92096 42.92096 0 0 1 77.54752-0.03072l330.27584 712.6784a44.14464 44.14464 0 0 1-1.54112 42.14784 42.69056 42.69056 0 0 1-36.94592 21.06368zM511.58528 212.1216L235.45856 809.53856l234.56256-133.90336a33.8688 33.8688 0 0 1 6.61504-2.87744 124.99968 124.99968 0 0 1 75.392 0.1536c2.32448 0.73728 4.56704 1.72032 6.67648 2.944l229.3248 132.80256L511.58528 212.1216z" fill="#3B5F80" p-id="5212"></path></svg>